<?xml version="1.0" standalone="no"?>
<!DOCTYPE svg PUBLIC "-//W3C//DTD SVG 20010904//EN"
 "http://www.w3.org/TR/2001/REC-SVG-20010904/DTD/svg10.dtd">
<svg version="1.0" xmlns="http://www.w3.org/2000/svg"
 width="1024.000000pt" height="1024.000000pt" viewBox="0 0 1024.000000 1024.000000"
 preserveAspectRatio="xMidYMid meet">

<g transform="translate(0.000000,1024.000000) scale(0.100000,-0.100000)"
fill="#000000" stroke="none">
<path d="M4874 9099 c-694 -44 -1369 -261 -1919 -617 -450 -291 -878 -710
-1148 -1122 -367 -562 -574 -1160 -638 -1845 -16 -169 -16 -574 0 -745 122
-1327 918 -2508 2107 -3127 598 -311 1230 -459 1909 -448 323 6 628 46 915
121 949 248 1754 807 2298 1597 252 365 472 840 570 1232 96 378 125 610 126
1000 1 296 -7 411 -45 645 -126 792 -491 1527 -1043 2107 -290 305 -755 643
-1116 811 -641 298 -1342 434 -2016 391z m651 -194 c756 -85 1436 -359 1980
-799 245 -198 414 -364 575 -564 339 -423 599 -951 731 -1486 71 -283 99 -499
106 -801 16 -672 -106 -1224 -397 -1805 -242 -483 -593 -916 -1018 -1254 -550
-438 -1193 -709 -1927 -811 -179 -25 -567 -31 -785 -11 -958 87 -1889 549
-2496 1239 -476 541 -793 1189 -913 1867 -51 285 -66 743 -36 1038 66 640 281
1243 626 1759 170 254 444 556 694 768 616 521 1350 810 2230 879 103 8 495
-4 630 -19z"/>
<path d="M4889 8721 c-2 -16 2 -150 7 -263 l7 -128 40 0 40 0 -6 132 -7 133
43 -75 c24 -41 60 -101 81 -132 35 -55 39 -58 77 -58 l41 0 -3 200 -3 201 -41
-3 -40 -3 4 -130 c2 -71 1 -128 -1 -125 -3 3 -38 63 -78 133 l-73 128 -43 -2
c-24 -2 -44 -5 -45 -8z"/>
<path d="M5467 8684 c-13 -84 -40 -345 -36 -349 7 -6 268 -39 273 -34 2 2 6
17 8 34 3 32 1 33 -134 50 l-58 6 0 37 c0 62 7 66 89 52 83 -14 101 -10 101
24 0 28 -8 32 -86 41 -32 4 -66 9 -74 10 -11 1 -14 12 -11 41 1 21 4 40 4 40
1 1 45 -4 97 -11 52 -6 96 -11 98 -10 2 2 5 18 8 37 l6 34 -104 12 c-56 7
-119 16 -139 19 -35 5 -36 4 -42 -33z"/>
<path d="M4577 8695 c-83 -29 -124 -103 -114 -204 9 -109 63 -172 153 -179
126 -10 204 56 204 174 0 75 -17 127 -54 168 -49 54 -115 68 -189 41z m123
-85 c29 -29 40 -63 40 -121 0 -42 -5 -55 -29 -80 -59 -59 -137 -29 -161 62
-25 93 11 159 87 159 30 0 49 -6 63 -20z"/>
<path d="M4303 8649 c-18 -5 -30 -15 -28 -22 2 -6 13 -61 25 -122 12 -60 28
-140 36 -176 l15 -67 40 10 c21 6 39 13 38 17 -4 47 -78 365 -85 367 -5 1 -23
-2 -41 -7z"/>
<path d="M5842 8598 c-6 -35 -27 -119 -46 -188 -19 -69 -33 -126 -32 -127 7
-8 169 -33 208 -33 41 0 54 5 88 36 104 94 103 266 -3 320 -26 14 -172 54
-196 54 -4 0 -13 -28 -19 -62z m165 -49 c30 -11 43 -39 43 -94 0 -50 -16 -89
-49 -119 -17 -16 -31 -18 -77 -13 -31 3 -58 7 -60 9 -3 3 13 72 47 201 10 37
12 38 42 31 18 -3 42 -10 54 -15z"/>
<path d="M4002 8569 c-25 -13 -55 -39 -69 -60 -22 -34 -25 -47 -21 -106 7
-126 64 -202 159 -211 104 -10 189 51 189 135 0 37 -3 44 -16 39 -9 -3 -25 -6
-37 -6 -16 0 -22 -6 -23 -25 -2 -34 -19 -52 -60 -65 -71 -24 -138 54 -132 155
3 44 7 52 37 72 45 31 69 29 106 -7 l30 -29 28 22 29 22 -22 28 c-47 59 -123
73 -198 36z"/>
<path d="M6207 8421 c-58 -169 -59 -191 -9 -241 66 -66 168 -77 217 -24 19 20
135 275 135 296 0 6 -55 28 -70 28 -4 0 -27 -52 -51 -115 -51 -134 -74 -167
-113 -167 -33 0 -76 38 -76 68 0 12 20 74 45 137 25 64 45 120 45 125 0 5 -17
14 -38 19 l-38 10 -47 -136z"/>
<path d="M3732 8479 c-20 -6 -32 -15 -29 -22 3 -7 26 -61 52 -121 59 -136 66
-177 34 -200 -31 -21 -72 -20 -92 2 -8 9 -40 71 -69 137 -49 109 -56 120 -78
117 -55 -6 -55 -20 3 -149 64 -146 78 -168 118 -189 40 -20 95 -11 150 26 86
58 89 106 15 279 -29 69 -57 126 -62 127 -5 1 -24 -2 -42 -7z"/>
<path d="M6645 8355 c-47 -25 -73 -55 -101 -111 -51 -105 -22 -202 76 -251 56
-29 98 -29 141 0 43 29 47 51 15 72 -23 15 -27 15 -48 1 -33 -23 -68 -20 -100
11 -46 44 -30 130 36 192 50 47 136 18 146 -50 3 -23 13 -37 30 -46 32 -16 50
-1 50 41 0 101 -155 190 -245 141z"/>
<path d="M3316 8267 c-71 -40 -131 -78 -133 -83 -2 -6 5 -21 15 -34 l19 -23
46 25 46 26 76 -139 76 -139 34 23 34 22 -66 125 c-36 69 -70 129 -74 135 -15
16 -10 21 41 45 54 25 59 37 33 69 -18 20 -18 20 -147 -52z"/>
<path d="M4900 8144 c-353 -31 -605 -88 -900 -201 -397 -152 -723 -365 -1023
-668 -493 -497 -798 -1130 -867 -1800 -14 -139 -15 -491 0 -615 76 -664 331
-1236 770 -1727 155 -174 413 -390 624 -523 363 -229 762 -375 1209 -442 192
-29 609 -32 792 -5 600 88 1053 279 1491 628 289 231 498 467 701 792 229 368
367 745 430 1172 22 150 25 595 5 755 -63 505 -268 1022 -560 1413 -515 688
-1193 1080 -2077 1202 -106 15 -501 27 -595 19z m395 -144 c188 -13 420 -50
593 -95 669 -176 1246 -584 1626 -1150 l67 -100 -1230 -3 c-677 -1 -1785 -1
-2462 0 l-1230 3 56 85 c143 214 377 470 575 629 342 275 797 489 1226 576
273 55 515 72 779 55z m2471 -1694 c225 -521 289 -1089 189 -1676 -82 -482
-326 -977 -681 -1381 -304 -348 -727 -635 -1164 -792 -232 -84 -582 -157 -817
-170 l-73 -4 42 76 c22 42 69 126 103 186 34 61 107 189 161 285 53 96 134
240 179 320 45 80 115 204 155 275 40 72 130 231 200 355 70 124 171 304 225
400 54 96 130 231 170 300 40 69 196 343 346 610 150 267 302 537 338 601 36
64 163 287 281 496 l215 380 39 -70 c22 -38 63 -125 92 -191z m-5006 -6 c95
-169 341 -610 690 -1235 92 -165 211 -376 265 -470 123 -214 275 -482 420
-740 62 -110 224 -400 362 -645 298 -530 513 -917 513 -923 0 -6 -100 2 -232
19 -335 41 -657 138 -956 288 -1303 654 -1903 2173 -1405 3556 43 121 129 309
173 379 l22 34 25 -44 c14 -24 69 -123 123 -219z m4740 245 c0 -3 -44 -83 -98
-178 -54 -95 -134 -235 -177 -312 -129 -231 -263 -469 -273 -485 -8 -12 -18
-8 -63 28 -30 23 -130 101 -224 173 l-170 131 -56 -5 c-79 -7 -232 -74 -352
-155 -56 -37 -119 -78 -139 -91 l-37 -22 -63 43 c-76 52 -165 83 -297 103 -60
9 -149 33 -227 61 -112 40 -142 47 -230 51 -166 9 -323 -31 -546 -139 l-126
-61 -76 49 c-41 27 -118 76 -171 109 -53 33 -146 97 -206 143 -60 45 -116 82
-124 82 -27 0 -119 -47 -265 -134 -80 -48 -196 -112 -258 -143 -97 -48 -115
-54 -127 -42 -11 12 -376 664 -429 767 l-17 32 2376 0 c1306 0 2375 -2 2375
-5z m-3567 -589 c45 -35 115 -85 155 -111 39 -26 72 -50 72 -52 0 -2 -11 -1
-25 3 -19 5 -25 2 -25 -10 0 -19 -30 -22 -31 -3 0 9 -2 9 -6 -1 -3 -8 -11 -5
-24 12 -10 13 -42 43 -70 67 l-51 43 2 -45 c4 -61 2 -69 -14 -69 -20 0 -66 58
-73 91 -6 30 -23 40 -23 14 0 -16 -35 -55 -49 -55 -9 0 -69 82 -74 101 -2 10
120 78 141 79 7 0 50 -29 95 -64z m2614 -155 c43 -33 92 -72 108 -86 26 -23
27 -25 5 -13 -14 7 -39 18 -57 24 l-32 11 6 -48 c5 -39 3 -49 -9 -49 -15 0
-62 44 -93 85 -13 19 -14 16 -15 -30 0 -27 -5 -57 -10 -65 -9 -13 -16 -9 -43
20 -17 20 -44 51 -58 70 l-26 34 -39 -16 c-28 -12 -50 -15 -79 -10 l-40 8 40
25 c52 33 207 93 252 98 6 0 47 -26 90 -58z m-1237 -11 c90 -31 183 -55 245
-64 55 -8 126 -24 157 -36 67 -25 150 -78 156 -100 4 -12 2 -13 -9 -2 -7 6
-24 12 -39 12 -14 0 -45 9 -69 20 -55 25 -57 25 -37 -5 9 -13 16 -29 16 -34 0
-6 -43 5 -96 23 l-96 33 6 -23 c10 -39 -12 -37 -82 5 -102 61 -101 61 -91 6
17 -90 -8 -87 -95 10 -37 41 -72 75 -77 75 -5 0 -6 -17 -3 -40 5 -27 3 -40 -5
-40 -21 0 -76 28 -105 54 -16 14 -33 26 -38 26 -5 0 -17 -20 -28 -45 -11 -25
-23 -45 -28 -45 -5 0 -31 12 -56 26 -26 15 -48 25 -50 23 -1 -2 -13 -19 -25
-36 -12 -18 -27 -33 -32 -33 -5 0 -26 16 -48 35 -21 19 -43 35 -48 35 -6 0
-30 -17 -54 -38 -64 -57 -86 -66 -98 -45 -5 10 -9 23 -10 28 -1 19 -39 16 -83
-5 -51 -26 -108 -41 -108 -29 0 33 235 161 384 208 231 74 330 74 546 1z
m-1412 -277 c70 -118 93 -282 52 -370 -16 -36 -24 -43 -48 -43 -16 0 -37 9
-46 19 -22 24 -46 103 -46 150 0 30 52 303 56 298 1 -1 16 -25 32 -54z m1292
-309 c40 -8 56 -44 39 -86 -16 -39 -37 -48 -109 -48 -51 0 -65 4 -85 25 -27
26 -34 82 -13 103 13 13 114 16 168 6z m1461 -166 c-37 -68 -139 -249 -226
-403 -87 -154 -194 -343 -237 -420 -43 -77 -82 -143 -86 -147 -4 -4 -448 -8
-987 -8 l-979 -1 -66 118 c-37 65 -165 294 -284 508 -120 215 -229 407 -242
428 l-24 37 135 0 c98 0 135 -3 135 -12 0 -7 12 -24 26 -39 l26 -28 -21 -27
c-11 -15 -21 -35 -21 -45 0 -21 36 -51 82 -69 162 -60 237 -105 403 -240 146
-119 239 -188 308 -227 79 -45 222 -101 299 -116 l59 -12 -53 -33 c-29 -18
-89 -54 -133 -80 -60 -35 -81 -53 -83 -71 -2 -13 2 -28 10 -32 7 -5 200 -9
429 -9 371 0 418 2 423 16 19 49 -6 76 -121 129 -40 19 -87 44 -105 56 l-31
23 84 22 c46 12 145 52 220 87 74 36 167 75 206 86 214 64 370 184 404 312 26
97 -34 200 -137 239 -69 25 -124 25 -206 0 -76 -23 -140 -64 -224 -142 -34
-32 -64 -58 -68 -58 -3 0 -52 30 -108 68 -57 37 -127 78 -155 91 -49 23 -51
25 -38 45 8 11 15 30 15 42 0 11 3 24 7 27 3 4 327 7 719 7 l713 0 -68 -122z
m-1686 83 c3 -16 13 -35 21 -42 13 -10 6 -16 -40 -35 -80 -32 -141 -77 -228
-166 l-76 -80 -79 22 c-50 14 -117 44 -189 86 -127 73 -204 109 -320 149 l-80
27 15 34 16 33 477 1 476 0 7 -29z m1122 -103 c56 -37 89 -108 74 -158 -37
-125 -157 -214 -395 -294 -59 -20 -153 -59 -207 -86 -153 -77 -214 -91 -419
-97 -163 -4 -182 -3 -275 21 -162 41 -273 103 -480 268 -239 190 -336 252
-450 288 -22 7 -53 19 -68 27 -24 12 -26 17 -15 30 28 34 206 -3 361 -77 34
-16 113 -58 175 -94 97 -55 131 -68 229 -91 208 -49 258 -54 485 -55 225 0
338 10 423 38 47 16 51 20 69 70 15 41 32 64 80 106 33 29 76 62 93 75 96 66
244 79 320 29z m-779 -35 c93 -47 240 -146 244 -163 12 -53 -260 -86 -577 -69
-166 9 -265 25 -265 44 0 19 144 152 192 176 80 41 118 49 234 46 102 -2 116
-4 172 -34z m-58 -667 c0 -21 58 -61 152 -104 47 -22 88 -44 91 -49 4 -6 -135
-9 -369 -9 -205 0 -374 1 -374 2 0 2 49 32 108 68 59 35 116 74 126 85 17 19
31 21 143 21 98 0 123 -3 123 -14z m777 -388 c-13 -24 -113 -200 -222 -393
-108 -192 -219 -388 -247 -435 -28 -47 -138 -244 -245 -437 l-196 -353 -232
418 c-127 229 -275 494 -327 587 -53 94 -148 265 -213 380 -64 116 -126 222
-136 237 -11 14 -19 29 -19 32 0 3 419 6 931 6 l931 0 -25 -42z"/>
<path d="M5138 7983 c12 -2 30 -2 40 0 9 3 -1 5 -23 4 -22 0 -30 -2 -17 -4z"/>
<path d="M4115 7272 c-3 -3 48 -158 120 -364 l17 -48 46 0 47 0 68 206 c37
114 66 208 65 209 -2 1 -23 0 -48 -4 l-44 -6 -46 -143 -45 -142 -44 144 -45
144 -44 4 c-24 2 -45 2 -47 0z"/>
<path d="M4510 7065 l0 -205 45 0 45 0 0 205 0 205 -45 0 -45 0 0 -205z"/>
<path d="M4670 7064 l0 -205 48 3 47 3 3 78 3 77 34 0 c30 0 37 -5 61 -47 58
-102 70 -113 123 -113 l49 0 -54 82 -55 83 38 31 c36 30 38 36 38 86 -1 59
-22 98 -63 117 -13 6 -79 11 -147 11 l-125 0 0 -206z m220 123 c18 -9 25 -21
25 -42 0 -38 -32 -55 -104 -55 -44 0 -52 3 -47 16 3 9 6 33 6 55 l0 39 48 0
c26 0 58 -6 72 -13z"/>
<path d="M5050 7235 c0 -31 3 -35 35 -41 19 -3 44 -4 55 -1 19 5 20 0 20 -164
l0 -169 45 0 45 0 0 165 0 165 55 0 55 0 0 40 0 40 -155 0 -155 0 0 -35z"/>
<path d="M5410 7120 c0 -173 9 -205 64 -239 48 -30 141 -32 188 -4 61 35 69
64 71 238 l2 155 -42 0 -43 0 0 -135 c0 -171 -9 -195 -74 -195 -71 0 -76 12
-76 183 l0 147 -45 0 -45 0 0 -150z"/>
<path d="M5810 7065 l0 -205 88 0 c106 0 152 12 197 51 47 42 69 104 62 177
-6 75 -27 115 -79 152 -40 29 -44 30 -155 30 l-113 0 0 -205z m227 102 c53
-52 37 -195 -24 -218 -13 -5 -44 -9 -69 -9 l-44 0 0 131 0 131 56 -4 c42 -4
61 -11 81 -31z"/>
<path d="M4652 7235 c0 -16 2 -22 5 -12 2 9 2 23 0 30 -3 6 -5 -1 -5 -18z"/>
<path d="M5511 7224 c0 -11 3 -14 6 -6 3 7 2 16 -1 19 -3 4 -6 -2 -5 -13z"/>
<path d="M5958 6843 c7 -3 16 -2 19 1 4 3 -2 6 -13 5 -11 0 -14 -3 -6 -6z"/>
<path d="M7287 5009 c-18 -43 -17 -43 129 -176 127 -115 152 -132 165 -112 17
26 23 63 11 67 -7 2 -21 11 -33 20 l-20 17 21 58 c21 55 23 57 58 57 48 0 58
7 70 53 l10 37 -86 0 c-48 0 -137 3 -199 7 l-112 6 -14 -34z m223 -63 c0 -7
-6 -28 -13 -45 l-13 -31 -53 45 -53 45 66 0 c50 0 66 -3 66 -14z"/>
<path d="M7183 4748 c-25 -28 -35 -48 -74 -141 -17 -40 -32 -77 -35 -82 -2 -6
12 -17 33 -24 21 -7 99 -42 174 -77 75 -35 141 -64 147 -64 7 0 32 50 32 65 0
1 -31 17 -70 34 -38 18 -70 34 -70 36 0 2 5 15 11 28 9 21 21 26 70 31 90 10
119 24 135 62 8 18 14 36 14 39 0 11 -58 4 -121 -14 l-67 -19 -5 51 c-6 68
-38 97 -106 97 -37 0 -52 -5 -68 -22z m106 -74 c14 -14 -9 -113 -34 -142 -3
-3 -85 29 -85 33 0 8 44 102 53 113 9 12 53 9 66 -4z"/>
<path d="M7007 4411 c-9 -16 -17 -32 -17 -35 0 -3 51 -31 113 -61 61 -30 120
-65 130 -76 37 -46 4 -128 -46 -113 -23 7 -87 42 -184 100 -31 19 -62 34 -67
34 -15 0 -49 -61 -39 -70 4 -5 60 -38 123 -74 95 -55 122 -66 160 -66 60 0
102 27 130 85 29 60 23 115 -16 156 -22 23 -248 149 -266 149 -2 0 -11 -13
-21 -29z"/>
<path d="M6786 4029 c-42 -61 -76 -114 -75 -117 0 -4 13 -17 29 -29 l28 -23
32 50 c29 46 34 49 51 38 10 -7 68 -48 129 -90 l110 -77 20 29 c11 15 20 32
20 37 0 4 -58 46 -128 93 -70 46 -129 85 -131 87 -2 1 11 20 28 41 l31 40 -25
16 c-13 9 -28 16 -33 16 -5 0 -44 -50 -86 -111z"/>
<path d="M6608 3783 c-38 -45 -33 -51 170 -214 l97 -78 18 22 c16 21 120 162
142 194 7 11 4 19 -14 34 -13 11 -29 18 -35 16 -10 -3 -102 -131 -109 -152 -3
-9 -199 146 -226 179 -17 20 -24 20 -43 -1z"/>
<path d="M6478 3637 l-25 -32 26 -20 c77 -57 191 -159 196 -176 10 -30 -3 -56
-34 -67 -37 -13 -72 3 -144 66 -31 28 -73 63 -92 77 l-34 27 -25 -29 c-14 -15
-25 -30 -25 -33 0 -13 223 -176 255 -188 69 -23 148 20 174 95 19 53 -2 102
-67 164 -69 65 -168 149 -175 149 -3 0 -17 -15 -30 -33z"/>
<path d="M6195 3329 c-69 -61 -89 -139 -55 -216 43 -98 108 -138 218 -134 46
1 116 68 130 122 12 47 2 86 -24 96 -22 8 -54 -31 -54 -66 0 -32 -31 -68 -65
-77 -32 -8 -100 31 -125 72 -26 41 -25 85 1 118 17 22 28 27 57 24 31 -2 38 1
55 30 l19 32 -36 15 c-53 22 -81 18 -121 -16z"/>
<path d="M2782 5059 c-95 -18 -151 -84 -152 -177 0 -86 61 -166 124 -160 27 3
31 7 34 36 3 29 0 34 -28 43 -36 13 -50 35 -50 81 0 64 49 98 143 98 75 0 112
-77 67 -140 l-19 -27 23 -22 c23 -21 26 -22 49 -7 69 46 58 188 -20 244 -25
18 -104 44 -123 41 -3 -1 -24 -5 -48 -10z"/>
<path d="M2915 4684 c-216 -78 -197 -66 -181 -111 8 -23 19 -37 27 -35 15 4
342 124 347 127 5 4 -31 75 -37 74 -3 0 -73 -25 -156 -55z"/>
<path d="M2970 4519 c-90 -38 -168 -73 -173 -78 -5 -5 12 -53 40 -112 72 -154
66 -146 97 -126 14 10 26 22 26 28 0 6 -13 41 -30 79 -16 38 -30 72 -30 77 0
5 16 17 35 26 l36 17 15 -37 c32 -81 47 -113 54 -113 4 0 18 8 31 19 l23 18
-27 60 c-15 33 -27 65 -27 70 0 5 14 14 32 21 40 15 46 9 79 -71 22 -56 25
-58 53 -53 17 4 33 10 37 14 7 7 -79 204 -96 220 -6 6 -73 -17 -175 -59z"/>
<path d="M3104 4199 c-168 -95 -172 -98 -139 -142 13 -18 17 -17 92 25 43 24
91 53 108 64 l30 19 -22 -35 c-54 -88 -113 -196 -113 -208 0 -7 8 -25 17 -40
9 -15 18 -28 19 -30 2 -4 173 95 252 146 35 22 68 43 75 45 9 3 9 9 -1 23 -7
11 -15 27 -18 37 -4 9 -8 17 -11 17 -2 0 -30 -17 -61 -39 -97 -66 -154 -102
-157 -99 -2 2 28 53 65 113 38 61 70 119 70 130 0 21 -26 65 -38 65 -4 -1 -80
-42 -168 -91z"/>
<path d="M3353 3913 c-55 -31 -122 -102 -134 -143 -18 -58 -4 -106 45 -158 39
-41 47 -45 90 -45 57 0 70 11 61 52 -6 28 -10 31 -46 31 -50 0 -79 27 -79 74
0 79 153 162 204 110 18 -18 21 -66 6 -95 -9 -15 -6 -24 14 -46 l25 -27 26 24
c51 48 42 140 -20 200 -31 30 -42 34 -98 37 -45 2 -71 -2 -94 -14z"/>
<path d="M3653 3651 c-24 -20 -90 -70 -147 -111 -58 -41 -105 -77 -105 -80 0
-3 10 -18 24 -34 l23 -29 29 18 c24 16 161 116 246 180 l27 20 -28 36 -27 36
-42 -36z"/>
<path d="M3795 3479 c-22 -10 -99 -47 -172 -82 l-132 -63 23 -29 c23 -29 24
-29 57 -14 33 16 34 15 80 -18 71 -51 73 -55 49 -99 -11 -21 -20 -44 -20 -50
0 -10 45 -54 55 -54 5 0 160 308 169 337 5 16 0 33 -20 58 -30 40 -35 41 -89
14z m-6 -136 c-18 -32 -33 -59 -35 -61 -1 -2 -21 10 -44 27 l-41 30 48 21 c26
11 59 26 73 34 14 7 27 11 29 10 2 -2 -12 -29 -30 -61z"/>
<path d="M5892 4958 c-65 -36 -144 -110 -180 -171 -37 -62 -36 -93 3 -103 57
-14 310 83 341 132 19 28 20 94 3 122 -29 46 -102 55 -167 20z m122 -40 c21
-29 20 -61 -1 -80 -40 -35 -222 -108 -269 -108 -40 0 100 152 171 186 62 30
80 30 99 2z"/>
<path d="M4935 3840 c-66 -32 -158 -76 -205 -96 -111 -49 -114 -53 -111 -113
2 -35 -6 -70 -28 -127 -37 -95 -38 -107 -7 -131 13 -10 163 -65 334 -122 l311
-105 53 43 c29 23 128 98 219 167 l165 125 -18 55 c-17 49 -17 57 -4 76 14 19
13 24 -4 46 -26 32 -35 87 -21 119 17 38 0 49 -99 61 -47 6 -161 23 -255 37
-93 13 -179 24 -190 24 -11 0 -74 -27 -140 -59z m641 -156 c5 -33 3 -49 -7
-59 -14 -13 -318 -204 -354 -222 -15 -8 -41 -5 -100 12 -44 13 -141 39 -215
59 -74 21 -160 45 -190 54 l-54 17 3 55 c1 30 4 57 7 59 2 2 108 -19 236 -47
128 -28 255 -56 283 -61 l50 -10 140 83 c168 100 178 105 187 106 4 0 10 -21
14 -46z m29 -160 c6 -37 4 -40 -37 -69 -24 -16 -109 -80 -190 -142 -141 -107
-148 -111 -148 -85 -1 15 -3 52 -6 82 l-6 56 49 26 c26 15 109 65 183 113 145
92 144 92 155 19z m-696 -89 c134 -36 252 -70 262 -76 16 -8 19 -22 19 -80 0
-68 -1 -70 -22 -64 -53 15 -456 148 -506 167 l-54 20 6 41 c8 50 13 57 34 57
10 0 127 -29 261 -65z"/>
<path d="M6956 8045 c-77 -57 -148 -113 -159 -123 -18 -19 -18 -20 13 -42 22
-16 37 -20 45 -14 7 5 26 19 43 32 l30 22 51 -40 c47 -37 51 -44 51 -83 0 -37
5 -47 31 -66 17 -13 32 -21 34 -19 2 1 10 45 19 96 9 51 27 140 41 199 14 58
24 107 23 108 -2 0 -15 9 -30 18 -15 9 -33 17 -40 17 -7 0 -76 -48 -152 -105z
m116 -57 c-8 -35 -18 -66 -21 -71 -4 -4 -20 7 -37 24 l-29 30 45 39 c25 22 48
40 51 40 4 0 0 -28 -9 -62z"/>
<path d="M3067 8122 c-15 -9 -25 -23 -22 -30 8 -23 207 -312 214 -312 3 0 19
10 35 23 l29 23 -105 154 c-57 85 -108 155 -114 157 -5 1 -21 -5 -37 -15z"/>
<path d="M2955 8037 c-50 -36 -200 -159 -202 -166 -2 -3 6 -17 16 -30 l19 -24
44 36 44 36 76 -92 c41 -51 81 -102 89 -115 17 -28 24 -28 59 1 l28 24 -90
117 c-87 113 -89 118 -73 136 10 11 26 22 36 25 23 8 24 23 1 52 l-17 22 -30
-22z"/>
<path d="M7276 8005 c-9 -13 -16 -26 -16 -28 0 -2 20 -18 45 -36 53 -38 59
-25 -74 -177 l-90 -102 36 -28 36 -27 21 29 c12 16 57 71 100 122 l80 92 43
-42 c37 -37 46 -41 61 -30 26 19 42 25 49 19 5 -6 -7 -21 -161 -191 l-79 -87
29 -30 30 -29 128 141 128 140 -79 73 c-112 105 -250 216 -266 216 -3 0 -12
-11 -21 -25z"/>
<path d="M2635 7782 c-130 -80 -140 -252 -15 -252 18 0 66 18 110 43 l79 42
22 -22 c47 -46 -17 -120 -93 -107 -34 5 -38 3 -53 -26 -9 -17 -13 -34 -11 -39
3 -5 25 -12 50 -15 83 -13 171 46 197 133 10 33 9 44 -7 77 -24 49 -73 78
-118 70 -18 -3 -59 -22 -91 -41 -66 -40 -91 -44 -100 -15 -8 25 14 63 50 86
23 15 27 15 51 -1 26 -17 27 -16 52 8 l25 25 -26 26 c-31 31 -78 34 -122 8z"/>
<path d="M7669 7679 c-7 -13 -46 -93 -87 -178 l-73 -154 21 -22 21 -22 162 64
c89 35 172 68 185 73 l23 10 -23 30 c-12 16 -27 30 -32 30 -6 0 -63 -23 -126
-50 -63 -27 -115 -50 -116 -50 0 0 26 52 59 116 l59 116 -30 31 -30 30 -13
-24z"/>
<path d="M2405 7518 c-16 -22 -14 -25 64 -100 71 -67 77 -75 48 -67 -17 6 -79
14 -137 18 -105 9 -105 9 -132 -18 l-27 -26 148 -112 149 -112 26 34 c32 41
32 41 4 49 -22 5 -188 116 -175 116 21 0 207 -31 234 -39 30 -9 35 -7 62 26
l29 35 -63 52 c-34 28 -92 77 -128 109 -35 31 -69 57 -75 57 -6 0 -18 -10 -27
-22z"/>
<path d="M7915 7315 c-38 -13 -117 -38 -175 -55 -58 -18 -106 -34 -108 -35 -2
-2 4 -15 14 -30 16 -24 22 -26 58 -21 39 6 44 4 91 -44 l50 -51 -23 -39 -22
-39 31 -36 c39 -45 59 -45 59 -2 0 22 26 77 80 171 44 77 80 143 80 147 0 13
-42 59 -53 58 -7 0 -43 -11 -82 -24z m5 -122 c-18 -32 -34 -60 -36 -61 -3 -5
-63 61 -64 69 0 6 98 43 123 48 5 0 -6 -25 -23 -56z"/>
<path d="M2140 7221 l-21 -30 103 -78 c57 -42 122 -92 146 -110 24 -18 47 -33
51 -33 4 0 17 14 29 30 l23 30 -148 110 c-81 60 -151 110 -155 110 -4 0 -16
-13 -28 -29z"/>
<path d="M1735 4603 c-93 -19 -171 -36 -172 -36 -6 -7 29 -175 44 -204 30 -61
63 -78 151 -78 90 0 151 27 189 84 27 40 28 67 7 184 -13 68 -20 87 -33 86 -9
0 -92 -17 -186 -36z m149 -84 c12 -60 7 -98 -15 -118 -26 -24 -117 -46 -153
-37 -35 9 -67 62 -64 106 l3 34 105 22 c58 11 108 22 111 23 4 0 9 -13 13 -30z"/>
<path d="M8365 4627 c-17 -8 -37 -22 -44 -31 -18 -21 -72 -228 -63 -237 9 -8
310 -69 340 -69 30 0 41 32 48 139 7 106 -9 144 -75 180 -53 29 -160 39 -206
18z m191 -109 c25 -24 26 -30 19 -83 l-7 -57 -36 6 c-21 4 -70 14 -111 23
l-73 17 5 43 c8 70 29 86 110 81 56 -3 71 -8 93 -30z"/>
<path d="M1816 4241 c-108 -44 -147 -123 -114 -234 28 -94 121 -139 224 -110
66 19 138 79 154 129 23 70 -8 160 -72 207 -40 30 -129 33 -192 8z m142 -67
c27 -8 52 -51 52 -91 0 -41 -26 -72 -77 -94 -96 -41 -163 -11 -163 73 0 57 21
85 78 102 53 16 77 18 110 10z"/>
<path d="M8199 4193 c-5 -16 -15 -41 -21 -56 -7 -18 -8 -31 -2 -35 5 -4 52
-36 104 -71 52 -36 119 -84 149 -107 30 -24 58 -41 62 -39 3 3 9 17 12 32 4
22 -1 35 -26 60 l-31 33 21 62 21 63 45 3 c41 3 47 6 56 34 6 17 11 35 11 39
0 5 -88 9 -195 9 l-195 0 -11 -27z m184 -49 c40 -7 40 -7 16 -72 l-9 -23 -57
37 c-92 58 -96 64 -38 64 28 0 67 -3 88 -6z"/>
<path d="M8120 3929 c-12 -13 -43 -66 -71 -117 -43 -81 -47 -93 -32 -98 10 -4
86 -38 170 -76 84 -39 157 -67 163 -63 7 4 27 39 46 78 45 94 46 152 5 200
-41 46 -133 90 -203 95 -51 4 -60 2 -78 -19z m161 -91 c60 -31 64 -36 67 -70
3 -30 -19 -98 -32 -98 -2 0 -51 23 -110 51 -117 56 -114 50 -64 122 26 36 59
35 139 -5z"/>
<path d="M1983 3861 c-205 -98 -192 -74 -121 -218 55 -112 62 -122 79 -112 34
17 33 37 -4 118 l-35 79 134 63 c74 35 134 64 134 66 0 9 -35 73 -39 72 -3 0
-70 -31 -148 -68z"/>
<path d="M7914 3553 c-71 -121 -72 -126 -37 -142 38 -17 199 -118 245 -153
l36 -28 20 32 c52 88 134 239 131 242 -2 2 -19 6 -37 9 -31 6 -33 5 -66 -61
-19 -37 -41 -75 -48 -86 -14 -18 -16 -18 -51 5 -20 13 -37 28 -37 33 0 5 18
40 40 79 22 38 39 71 38 72 -7 5 -47 25 -51 25 -3 0 -22 -30 -43 -67 -20 -38
-39 -70 -41 -72 -6 -7 -74 29 -70 37 2 4 23 39 46 79 45 75 46 93 6 93 -20 0
-34 -17 -81 -97z"/>
<path d="M2111 3584 c-59 -30 -107 -87 -117 -141 -8 -41 10 -106 39 -147 24
-34 89 -66 137 -66 48 0 130 40 164 81 58 68 70 133 37 197 -52 101 -152 130
-260 76z m149 -59 c16 -8 34 -24 40 -34 13 -25 13 -77 -1 -102 -15 -30 -98
-79 -132 -79 -40 0 -97 57 -97 98 0 39 42 89 95 113 49 23 58 23 95 4z"/>
<path d="M2383 3272 c-136 -100 -222 -166 -222 -172 0 -3 10 -18 23 -33 l23
-28 61 46 c34 25 64 45 67 45 2 0 12 -14 20 -31 15 -29 15 -35 -9 -107 l-26
-76 23 -33 c12 -18 27 -31 32 -30 13 4 43 111 44 155 l1 33 29 -22 c38 -28 88
-20 129 22 36 37 45 73 27 117 -15 33 -116 182 -125 181 -3 0 -46 -30 -97 -67z
m157 -148 c0 -16 -20 -31 -51 -39 -22 -5 -32 0 -63 36 -20 23 -36 46 -36 51 0
4 19 22 42 38 l42 31 33 -53 c18 -29 33 -57 33 -64z"/>
<path d="M7696 3228 c-9 -12 -16 -28 -16 -34 0 -16 266 -219 287 -219 11 0 42
36 80 90 34 50 62 93 62 96 1 4 -10 14 -23 23 -24 15 -25 15 -68 -49 -23 -35
-47 -65 -51 -65 -8 0 -67 43 -177 129 -36 28 -68 51 -72 51 -4 0 -14 -10 -22
-22z"/>
<path d="M7585 3076 c-59 -27 -115 -110 -115 -171 0 -39 35 -99 80 -137 92
-79 200 -75 270 10 35 42 44 79 36 137 -17 109 -177 205 -271 161z m110 -85
c88 -54 111 -122 59 -175 -37 -36 -79 -34 -140 7 -50 33 -76 80 -66 119 16 61
88 86 147 49z"/>
<path d="M2664 3029 c-10 -12 -68 -65 -129 -117 -60 -53 -110 -101 -110 -107
0 -7 42 -56 93 -110 l93 -97 24 22 24 23 -64 71 c-36 39 -65 76 -64 81 0 6 14
21 30 34 l31 24 58 -64 58 -64 26 24 27 25 -63 63 c-34 34 -60 64 -57 65 2 2
16 13 30 26 l26 23 56 -58 c55 -57 56 -57 76 -39 12 11 21 24 21 30 0 13 -147
166 -159 166 -4 0 -16 -10 -27 -21z"/>
<path d="M7310 2800 c-19 -10 -48 -32 -63 -48 -55 -58 -43 -153 23 -187 32
-17 30 -18 145 44 21 11 47 21 56 21 24 0 41 -25 37 -57 -4 -37 -67 -71 -103
-55 -19 9 -27 7 -46 -15 l-24 -25 24 -19 c48 -39 137 -16 191 50 69 83 38 168
-72 195 -19 4 -44 -3 -92 -29 -79 -42 -94 -43 -102 -9 -10 40 30 77 76 71 26
-3 43 1 60 15 l25 20 -28 24 c-33 29 -60 30 -107 4z"/>
<path d="M2883 2779 c-38 -11 -66 -49 -66 -87 0 -15 19 -56 41 -91 23 -35 42
-72 42 -82 0 -36 -12 -49 -45 -49 -25 0 -40 8 -60 32 -23 27 -26 38 -21 75 5
35 2 44 -14 53 -28 15 -36 13 -48 -15 -27 -60 3 -141 72 -196 66 -52 164 -27
187 50 15 50 9 70 -41 154 -33 55 -39 71 -29 83 17 21 35 17 75 -18 30 -27 35
-36 30 -61 -9 -46 3 -77 29 -77 28 0 43 17 51 57 7 37 -12 76 -58 120 -27 26
-98 66 -110 62 -2 0 -18 -5 -35 -10z"/>
<path d="M6926 2495 c-49 -35 -95 -70 -103 -78 -13 -12 -3 -33 77 -158 51 -79
96 -148 100 -153 6 -6 180 98 223 134 9 8 -12 60 -25 60 -5 0 -41 -22 -81 -50
l-72 -50 -27 32 c-16 18 -28 36 -28 40 0 9 118 88 132 88 14 0 9 24 -11 49
l-19 24 -72 -52 c-67 -49 -73 -51 -86 -34 -15 20 -28 53 -22 57 29 23 130 86
137 86 6 0 11 8 11 18 -1 20 -23 52 -36 51 -5 0 -49 -29 -98 -64z"/>
<path d="M3164 2374 l-106 -156 28 -24 c16 -13 31 -23 34 -23 3 -1 34 44 70
98 36 55 66 98 68 97 1 -2 -11 -52 -28 -111 -16 -60 -30 -110 -30 -112 0 -1
11 -10 25 -19 24 -16 25 -15 110 63 47 43 91 80 97 82 6 2 -8 -23 -30 -56 -23
-33 -52 -81 -66 -106 l-26 -45 26 -17 c14 -9 31 -14 38 -12 7 3 52 72 100 153
98 164 97 156 18 190 l-33 15 -76 -71 c-42 -39 -78 -68 -80 -66 -3 3 7 54 22
113 l27 108 -33 27 c-18 16 -37 28 -40 28 -4 0 -56 -70 -115 -156z"/>
<path d="M6634 2320 c-11 -4 -46 -24 -78 -44 l-56 -37 62 -117 c91 -172 105
-196 114 -199 5 -1 45 17 89 40 91 48 125 88 125 149 0 70 -52 161 -114 199
-33 20 -104 25 -142 9z m126 -98 c68 -68 67 -148 -2 -183 l-42 -22 -16 23 c-8
13 -34 58 -58 101 l-43 79 33 20 c51 31 84 26 128 -18z"/>
<path d="M3560 2135 c-74 -74 -132 -136 -130 -138 52 -38 58 -38 96 -5 l37 32
56 -30 c54 -30 56 -32 59 -76 3 -42 6 -47 34 -57 17 -6 33 -10 34 -8 4 4 35
380 31 383 -2 2 -78 34 -81 34 -1 0 -62 -61 -136 -135z m135 -32 c-4 -38 -9
-69 -10 -71 -1 -2 -19 7 -39 19 l-36 21 41 49 c22 27 43 49 46 49 2 0 1 -30
-2 -67z"/>
<path d="M3868 1998 l-65 -173 26 -12 c49 -23 58 -17 81 52 12 36 23 65 25 65
2 0 16 -5 30 -12 27 -12 28 -14 48 -116 12 -62 14 -64 52 -78 21 -7 40 -12 41
-11 3 3 -26 148 -31 158 -3 4 9 15 28 22 40 17 68 57 74 108 5 32 1 42 -23 67
-16 16 -67 43 -114 62 -47 18 -90 34 -96 37 -7 2 -37 -65 -76 -169z m195 51
c38 -20 45 -36 26 -71 -9 -17 -17 -19 -47 -13 -20 4 -49 13 -63 21 l-27 14 15
40 c18 45 23 45 96 9z"/>
<path d="M6205 2126 c-60 -27 -74 -43 -82 -89 -7 -46 19 -93 62 -114 29 -14
42 -15 86 -5 71 17 97 15 109 -7 16 -31 12 -40 -22 -61 -42 -25 -69 -25 -101
1 -21 16 -31 18 -47 9 -46 -25 -2 -88 69 -97 52 -7 118 17 157 58 22 24 28 39
28 70 -3 85 -73 128 -175 107 -46 -9 -61 -9 -73 1 -25 21 -19 49 14 66 37 19
64 19 84 0 18 -19 21 -19 51 1 20 13 23 20 15 35 -14 25 -62 49 -97 49 -15 0
-50 -11 -78 -24z"/>
<path d="M4208 1872 l-56 -177 36 -11 c36 -10 37 -9 51 25 7 20 33 99 57 176
44 139 44 154 7 155 -6 0 -17 2 -25 5 -9 4 -29 -44 -70 -173z"/>
<path d="M5876 2027 c-56 -31 -79 -67 -84 -129 -8 -106 60 -218 143 -234 112
-21 206 57 204 171 -2 163 -139 263 -263 192z m135 -68 c29 -29 49 -81 49
-129 0 -33 -6 -48 -30 -72 -26 -25 -36 -29 -63 -24 -55 10 -97 79 -97 162 0
70 92 112 141 63z"/>
<path d="M4383 1853 c-127 -208 -120 -189 -73 -201 39 -10 40 -9 62 27 12 20
23 38 24 40 2 2 32 -2 68 -9 l64 -12 9 -46 c7 -41 12 -47 41 -56 18 -5 36 -6
39 -2 4 4 -5 80 -20 169 -15 89 -27 174 -27 189 0 32 -5 35 -56 44 l-40 6 -91
-149z m137 -77 c0 -7 -70 1 -79 9 -2 2 10 29 25 60 l29 56 12 -58 c7 -32 12
-62 13 -67z"/>
<path d="M5522 1967 l-64 -10 6 -31 c5 -24 46 -323 46 -333 0 -6 56 -2 66 5 8
5 9 25 3 62 -12 87 -12 90 16 90 18 0 37 -16 76 -65 53 -67 56 -69 107 -59
l31 6 -54 72 c-43 55 -52 73 -41 81 35 27 47 100 25 148 -21 47 -80 56 -217
34z m150 -82 c16 -35 -6 -56 -67 -65 -50 -8 -49 -8 -59 47 -6 36 1 40 72 42
36 1 44 -3 54 -24z"/>
<path d="M4807 1883 c-11 -108 -8 -226 6 -253 31 -62 125 -88 203 -55 54 22
72 73 80 233 l7 132 -40 0 -40 0 -7 -132 c-9 -158 -17 -178 -76 -178 -59 0
-64 16 -55 182 l7 138 -40 0 -39 0 -6 -67z"/>
<path d="M5210 1932 c-102 -53 -108 -253 -11 -335 67 -56 167 -41 222 36 16
22 29 46 29 52 0 14 -73 27 -78 14 -32 -81 -137 -77 -158 6 -11 44 1 133 21
155 28 31 90 27 111 -6 14 -20 22 -24 43 -19 14 4 30 10 35 15 14 14 -12 65
-43 83 -39 23 -126 22 -171 -1z"/>
</g>
</svg>
